<svg width="40" height="40" viewBox="0 0 40 40" fill="none" xmlns="http://www.w3.org/2000/svg">
<path d="M32.0833 21.25L30.8333 24.1667L29.5833 21.25L26.6667 20L29.5833 18.75L30.8333 15.8333L32.0833 18.75L35 20L32.0833 21.25Z" fill="black"/>
<path d="M13.3427 20C13.3427 21.8409 11.8503 23.3333 10.0094 23.3333C8.16842 23.3333 6.67604 21.8409 6.67604 20C6.67604 18.1591 8.16842 16.6667 10.0094 16.6667C11.8503 16.6667 13.3427 18.1591 13.3427 20ZM13.3427 20H20.8427M25.8427 14.1667L22.3664 10.6904M25.8427 25.8333L22.3664 29.3097M16.676 8.33333C16.676 10.1743 18.1684 11.6667 20.0094 11.6667C21.8503 11.6667 23.3427 10.1743 23.3427 8.33333C23.3427 6.49238 21.8503 5 20.0094 5C18.1684 5 16.676 6.49238 16.676 8.33333ZM16.676 31.6667C16.676 33.5076 18.1684 35 20.0094 35C21.8503 35 23.3427 33.5076 23.3427 31.6667C23.3427 29.8257 21.8503 28.3333 20.0094 28.3333C18.1684 28.3333 16.676 29.8257 16.676 31.6667ZM30.8333 24.1667L32.0833 21.25L35 20L32.0833 18.75L30.8333 15.8333L29.5833 18.75L26.6667 20L29.5833 21.25L30.8333 24.1667Z" stroke="black" stroke-width="2.5"/>
</svg>
